<?xml version="1.0" standalone="no"?>
<!DOCTYPE svg PUBLIC "-//W3C//DTD SVG 20010904//EN"
 "http://www.w3.org/TR/2001/REC-SVG-20010904/DTD/svg10.dtd">
<svg version="1.0" xmlns="http://www.w3.org/2000/svg"
 width="414.000000pt" height="398.000000pt" viewBox="0 0 414.000000 398.000000"
 preserveAspectRatio="xMidYMid meet">

<g transform="translate(0.000000,398.000000) scale(0.100000,-0.100000)"
fill="#000000" stroke="none">
<path d="M1445 3857 c-64 -21 -97 -42 -141 -89 -72 -74 -89 -118 -89 -228 0
-81 4 -102 24 -145 32 -63 93 -124 156 -156 43 -21 64 -24 151 -24 98 0 102 1
160 36 281 173 178 600 -149 615 -42 2 -89 -2 -112 -9z"/>
<path d="M3692 3053 c-32 -49 -138 -213 -236 -365 l-178 -278 -330 0 -329 0 8
23 c14 38 7 112 -13 146 -10 18 -35 42 -54 54 -34 21 -46 22 -361 25 -319 3
-327 3 -350 25 -13 12 -102 95 -197 185 -102 97 -190 171 -215 182 -46 21
-113 25 -168 10 -45 -13 -114 -72 -138 -119 -10 -20 -99 -288 -197 -596 -165
-517 -179 -565 -178 -630 3 -163 104 -271 275 -295 40 -6 230 -10 422 -10 192
1 351 -1 353 -3 5 -5 26 -115 134 -697 17 -91 35 -179 41 -197 23 -73 82 -115
160 -115 91 0 159 65 159 153 0 26 -18 144 -40 261 -22 117 -63 335 -91 483
-55 292 -66 324 -135 385 -73 64 -77 64 -426 68 -175 2 -318 5 -318 7 0 2 5
16 10 31 6 15 61 181 121 368 61 188 113 343 115 345 2 2 40 -29 85 -69 46
-40 97 -79 115 -86 27 -12 173 -14 811 -14 l778 0 101 158 c56 86 165 255 243
375 77 120 141 224 141 232 0 29 -13 45 -36 45 -18 0 -36 -19 -82 -87z"/>
<path d="M352 2733 c-7 -3 -19 -18 -27 -33 -13 -25 -15 -110 -15 -550 l0 -521
25 -24 c13 -14 30 -25 38 -25 9 0 17 -15 21 -37 11 -70 71 -177 140 -250 56
-60 66 -76 66 -106 0 -58 15 -61 270 -67 124 -3 224 -8 223 -12 -2 -5 -3 -111
-3 -238 0 -219 -1 -230 -19 -230 -10 0 -48 -9 -84 -20 -79 -25 -172 -91 -224
-160 -20 -27 -44 -50 -53 -50 -31 -1 -61 -35 -67 -77 -7 -50 9 -81 50 -98 84
-35 156 42 124 131 -18 50 149 179 241 186 l33 3 2 -68 c2 -65 0 -70 -25 -85
-70 -41 -61 -142 16 -172 76 -29 159 72 111 136 -16 21 -22 194 -7 194 20 0
118 -33 141 -48 44 -27 85 -64 109 -95 18 -26 21 -39 16 -78 -7 -55 12 -92 55
-107 41 -14 78 -4 107 31 21 25 25 38 20 65 -6 43 -42 82 -73 82 -13 0 -23 4
-23 10 0 5 -27 39 -61 74 -69 75 -170 131 -250 142 l-49 7 0 238 0 238 255 3
c192 2 257 6 267 16 18 18 17 154 -1 176 -13 15 -60 16 -554 16 -607 -1 -554
-8 -604 78 -22 37 -63 149 -63 172 0 4 11 11 25 14 54 14 55 22 55 561 0 534
0 533 -52 569 -22 15 -126 21 -156 9z"/>
<path d="M1660 2200 l0 -70 1095 0 1095 0 0 70 0 70 -1095 0 -1095 0 0 -70z"/>
<path d="M2810 1175 l0 -905 520 0 520 0 0 905 0 905 -520 0 -520 0 0 -905z"/>
</g>
</svg>
