<?xml version="1.0" standalone="no"?>
<!DOCTYPE svg PUBLIC "-//W3C//DTD SVG 20010904//EN"
 "http://www.w3.org/TR/2001/REC-SVG-20010904/DTD/svg10.dtd">
<svg version="1.0" xmlns="http://www.w3.org/2000/svg"
 width="294.000000pt" height="219.000000pt" viewBox="0 0 294.000000 219.000000"
 preserveAspectRatio="xMidYMid meet">

<g transform="translate(0.000000,219.000000) scale(0.100000,-0.100000)"
fill="#000000" stroke="none">
<path d="M314 2026 c-62 -29 -118 -93 -133 -151 -8 -30 -11 -280 -11 -797 l0
-753 24 -51 c27 -59 90 -116 145 -132 55 -17 2167 -17 2222 0 55 16 118 73
145 132 l24 51 0 759 c0 567 -3 769 -12 800 -16 55 -99 138 -154 154 -31 9
-302 12 -1120 12 l-1079 0 -51 -24z m1875 -149 c-8 -7 -176 -139 -372 -294
-196 -156 -361 -283 -366 -283 -6 0 -75 50 -153 112 -269 212 -583 460 -592
469 -6 5 301 9 745 9 594 -1 751 -3 738 -13z m-1216 -622 c257 -198 472 -360
477 -360 5 0 219 162 476 360 258 198 472 362 476 363 4 2 8 -296 8 -662 l0
-666 -960 0 -960 0 0 666 c0 366 4 664 8 662 4 -1 218 -165 475 -363z"/>
</g>
</svg>
