<?xml version="1.0" standalone="no"?>
<!DOCTYPE svg PUBLIC "-//W3C//DTD SVG 20010904//EN"
 "http://www.w3.org/TR/2001/REC-SVG-20010904/DTD/svg10.dtd">
<svg version="1.0" xmlns="http://www.w3.org/2000/svg"
 width="285.000000pt" height="283.000000pt" viewBox="0 0 285.000000 283.000000"
 preserveAspectRatio="xMidYMid meet">

<g transform="translate(0.000000,283.000000) scale(0.100000,-0.100000)"
fill="#000000" stroke="none">
<path d="M320 2661 c-69 -21 -130 -73 -166 -141 -18 -34 -19 -81 -19 -1130 0
-1049 1 -1096 19 -1130 26 -49 74 -98 121 -123 l40 -22 1095 0 1095 0 40 22
c47 25 95 74 121 123 18 34 19 81 19 1130 l0 1095 -22 40 c-25 47 -74 95 -123
121 -33 18 -83 19 -1115 21 -594 1 -1091 -2 -1105 -6z m473 -354 c115 -49 171
-187 123 -302 -75 -178 -336 -185 -417 -10 -38 82 -17 206 44 262 64 60 174
81 250 50z m1254 -682 c143 -71 233 -196 253 -351 6 -46 10 -227 8 -429 l-3
-350 -190 0 -190 0 -5 371 -5 371 -24 35 c-42 61 -85 83 -161 83 -76 0 -119
-22 -161 -83 l-24 -35 -5 -371 -5 -371 -190 0 -190 0 0 575 0 575 190 0 190 0
3 -72 3 -71 48 48 c87 86 178 122 299 116 72 -3 95 -9 159 -41z m-1152 -555
l0 -575 -190 0 -190 0 -3 565 c-1 311 0 571 3 578 3 10 48 12 192 10 l188 -3
0 -575z"/>
</g>
</svg>
