<?xml version="1.0" standalone="no"?>
<!DOCTYPE svg PUBLIC "-//W3C//DTD SVG 20010904//EN"
 "http://www.w3.org/TR/2001/REC-SVG-20010904/DTD/svg10.dtd">
<svg version="1.0" xmlns="http://www.w3.org/2000/svg"
 width="543.000000pt" height="674.000000pt" viewBox="0 0 543.000000 674.000000"
 preserveAspectRatio="xMidYMid meet">

<g transform="translate(0.000000,674.000000) scale(0.100000,-0.100000)"
fill="#000000" stroke="none">
<path d="M2620 6636 c-16 -9 -62 -78 -125 -185 -55 -94 -107 -173 -115 -176
-19 -5 -225 -50 -305 -66 -103 -20 -152 -93 -107 -160 9 -14 71 -85 136 -158
l119 -132 -18 -199 c-20 -230 -17 -247 45 -275 41 -18 53 -17 135 20 87 39
158 71 223 100 l63 28 157 -70 c224 -100 221 -99 264 -79 57 27 64 56 50 205
-7 69 -15 158 -18 197 l-7 72 132 147 c131 147 148 175 137 218 -15 60 -43 72
-295 126 -147 32 -154 35 -183 91 -61 119 -170 288 -193 298 -33 15 -64 15
-95 -2z"/>
<path d="M964 6206 c-30 -13 -86 -99 -201 -306 l-30 -55 -79 -17 c-44 -10
-124 -27 -179 -39 -153 -32 -185 -54 -185 -127 0 -36 12 -53 153 -210 l119
-132 -16 -143 c-10 -78 -18 -173 -19 -210 -2 -66 -1 -70 31 -98 20 -18 43 -29
61 -29 15 0 109 35 207 78 l180 79 178 -79 c98 -43 191 -78 207 -78 18 0 41
11 61 29 32 28 33 32 31 98 -1 37 -9 132 -19 210 l-16 143 118 130 c66 72 127
143 136 158 35 53 17 125 -35 147 -18 7 -112 30 -208 51 l-176 37 -66 111
c-36 61 -82 140 -102 174 -27 46 -46 68 -71 78 -40 17 -41 17 -80 0z"/>
<path d="M4294 6206 c-24 -11 -48 -44 -114 -157 -46 -79 -91 -158 -101 -175
-15 -25 -29 -33 -76 -43 -369 -78 -371 -79 -380 -152 -7 -49 -3 -55 155 -232
l114 -127 -17 -150 c-9 -83 -17 -177 -18 -211 -2 -57 0 -62 31 -90 19 -18 43
-29 61 -29 15 0 109 35 207 78 l179 78 179 -78 c99 -43 191 -78 206 -78 33 0
78 33 91 67 8 21 -1 143 -26 368 l-6 50 116 125 c135 145 155 173 155 218 0
77 -26 90 -258 137 -90 19 -169 39 -177 45 -7 6 -41 59 -76 118 -128 221 -131
224 -165 238 -40 17 -41 17 -80 0z"/>
<path d="M2575 4604 c-11 -2 -40 -10 -65 -16 -201 -49 -392 -240 -444 -446
-22 -86 -20 -229 3 -319 82 -315 416 -518 734 -447 220 50 406 224 468 441 24
85 26 239 3 327 -50 196 -222 377 -416 437 -61 20 -239 34 -283 23z"/>
<path d="M705 4282 c-73 -25 -106 -45 -152 -95 -72 -78 -88 -118 -88 -227 0
-79 4 -103 23 -145 19 -40 125 -152 507 -535 292 -294 499 -509 523 -546 50
-76 86 -154 115 -254 21 -74 21 -89 27 -1035 4 -658 9 -970 17 -991 34 -95 97
-169 192 -222 l66 -37 338 -3 337 -3 0 630 0 630 27 20 c28 23 54 21 86 -7 16
-14 17 -58 17 -644 l0 -629 333 3 332 3 57 27 c80 37 152 108 191 187 l32 66
1 950 c0 877 2 956 18 1030 21 93 79 224 132 298 21 29 252 268 515 532 315
318 485 495 500 525 21 39 24 59 24 145 0 86 -3 106 -23 144 -76 142 -226 221
-365 192 -34 -7 -80 -23 -103 -36 -22 -13 -272 -255 -555 -538 -541 -541 -567
-563 -695 -603 -53 -17 -97 -19 -464 -19 -395 0 -407 1 -470 23 -36 12 -86 34
-112 50 -29 16 -249 227 -565 543 -285 284 -534 525 -554 537 -85 51 -176 63
-264 34z"/>
</g>
</svg>
