<?xml version="1.0" standalone="no"?>
<!DOCTYPE svg PUBLIC "-//W3C//DTD SVG 20010904//EN"
 "http://www.w3.org/TR/2001/REC-SVG-20010904/DTD/svg10.dtd">
<svg version="1.0" xmlns="http://www.w3.org/2000/svg"
 width="359.000000pt" height="386.000000pt" viewBox="0 0 359.000000 386.000000"
 preserveAspectRatio="xMidYMid meet">

<g transform="translate(0.000000,386.000000) scale(0.100000,-0.100000)"
fill="#000000" stroke="none">
<path d="M1612 3755 c-125 -23 -250 -79 -359 -159 -50 -36 -63 -52 -63 -72 0
-15 20 -111 45 -213 63 -258 63 -258 80 -264 8 -3 50 7 95 24 112 40 231 59
380 59 147 0 259 -17 382 -59 68 -23 90 -27 102 -18 15 12 102 355 113 449 l6
46 -64 47 c-108 80 -236 136 -367 161 -90 17 -252 16 -350 -1z m223 -110 c20
-19 25 -34 25 -73 l0 -50 57 -4 c68 -6 98 -34 89 -82 -8 -41 -33 -55 -93 -56
l-53 0 0 -49 c0 -61 -28 -101 -70 -101 -42 0 -70 40 -70 101 l0 49 -54 0 c-47
0 -57 4 -75 26 -45 57 -13 105 72 112 l57 4 0 45 c0 52 13 81 43 93 35 14 46
12 72 -15z"/>
<path d="M1061 3238 c-206 -137 -319 -296 -351 -493 -15 -90 -6 -183 31 -338
38 -156 47 -312 26 -414 -31 -146 -120 -291 -243 -399 -47 -41 -64 -63 -62
-78 2 -15 103 -85 367 -255 l365 -234 55 28 c183 92 191 103 191 258 l0 104
-42 28 c-58 38 -162 139 -208 201 -147 197 -200 464 -144 724 l16 75 151 149
c157 153 204 185 271 186 22 0 209 -53 430 -121 571 -176 568 -175 593 -198
33 -32 48 -118 47 -266 0 -97 -6 -152 -22 -219 -54 -218 -170 -400 -331 -514
l-63 -45 3 -117 c3 -87 8 -122 21 -140 9 -14 63 -49 121 -79 l104 -54 364 234
c225 145 365 241 367 252 3 12 -27 49 -90 111 -132 131 -195 246 -219 396 -14
92 -6 186 32 395 62 338 25 506 -146 679 -63 64 -270 215 -279 205 -2 -2 -16
-58 -31 -124 -31 -134 -38 -152 -69 -177 -28 -24 -56 -22 -151 7 -122 37 -258
57 -385 57 -139 0 -227 -13 -341 -53 -168 -57 -196 -39 -239 156 -28 127 -30
135 -39 135 -4 0 -49 -28 -100 -62z"/>
<path d="M1352 2630 c-223 -203 -221 -200 -238 -265 -27 -103 -29 -255 -5
-370 30 -146 102 -285 195 -380 114 -114 248 -195 375 -225 75 -18 202 -7 291
24 231 80 421 296 491 558 26 97 35 281 17 373 l-13 70 -80 27 c-44 15 -154
49 -245 77 -91 28 -268 82 -393 121 -126 38 -246 70 -268 70 -35 0 -48 -8
-127 -80z"/>
<path d="M2001 1354 c-136 -52 -295 -53 -426 -3 -77 29 -75 31 -75 -77 0 -68
-5 -106 -16 -130 -18 -37 -89 -104 -111 -104 -7 0 -13 -4 -13 -8 0 -15 383
-377 413 -390 44 -19 96 -2 138 46 17 20 95 103 171 184 77 81 139 150 139
153 0 4 -21 21 -47 39 -80 53 -89 71 -92 202 -2 63 -7 113 -10 113 -4 -1 -36
-12 -71 -25z"/>
<path d="M999 852 c-350 -180 -351 -181 -388 -232 -41 -57 -51 -116 -51 -305
l0 -165 240 0 240 0 0 140 c0 121 2 142 16 147 9 3 24 2 33 -4 13 -8 16 -34
19 -147 l3 -136 682 0 682 0 -3 127 c-3 142 5 171 46 159 21 -7 22 -12 22
-147 l0 -139 240 0 240 0 0 173 c0 309 2 307 -426 524 l-300 152 -184 -196
c-102 -109 -200 -206 -218 -216 -49 -29 -119 -27 -173 5 -24 15 -129 112 -234
217 -104 105 -192 191 -195 191 -3 -1 -133 -67 -291 -148z"/>
</g>
</svg>
