<?xml version="1.0" standalone="no"?>
<!DOCTYPE svg PUBLIC "-//W3C//DTD SVG 20010904//EN"
 "http://www.w3.org/TR/2001/REC-SVG-20010904/DTD/svg10.dtd">
<svg version="1.0" xmlns="http://www.w3.org/2000/svg"
 width="515.000000pt" height="455.000000pt" viewBox="0 0 515.000000 455.000000"
 preserveAspectRatio="xMidYMid meet">

<g transform="translate(0.000000,455.000000) scale(0.100000,-0.100000)"
fill="#000000" stroke="none">
<path d="M1421 4259 c-234 -27 -469 -149 -629 -324 -149 -163 -236 -358 -262
-585 -13 -113 -13 -2107 0 -2220 33 -289 175 -541 400 -712 81 -62 241 -141
340 -167 141 -38 227 -41 1290 -41 1025 1 1113 3 1255 36 88 20 271 108 351
168 227 170 372 425 403 709 14 127 15 2107 1 2232 -15 126 -43 224 -99 340
-155 318 -450 524 -811 565 -105 12 -2134 11 -2239 -1z m1714 -1020 c280 -105
327 -481 82 -648 -131 -88 -305 -81 -438 19 l-50 38 -242 -124 c-133 -68 -241
-127 -240 -131 2 -5 12 -35 24 -68 20 -58 22 -111 7 -244 -3 -27 3 -30 299
-198 l133 -75 47 42 c27 24 73 55 103 69 47 22 68 26 150 26 88 0 101 -3 162
-33 130 -64 201 -180 201 -327 0 -144 -68 -257 -194 -325 -154 -82 -355 -36
-461 105 -47 62 -67 119 -75 212 l-6 72 -181 102 c-100 56 -206 117 -237 135
l-56 34 -73 -38 c-69 -35 -77 -37 -169 -37 -81 0 -104 4 -146 25 -70 34 -148
111 -181 178 -25 51 -28 68 -29 157 0 88 3 107 27 157 34 73 103 142 176 176
50 24 69 27 157 27 77 0 111 -4 142 -19 l42 -18 268 135 268 136 -2 48 c-10
191 91 346 260 398 66 21 168 18 232 -6z"/>
<path d="M2940 3074 c-115 -50 -157 -178 -93 -282 91 -147 307 -110 353 60 22
80 -23 172 -104 213 -57 28 -105 31 -156 9z"/>
<path d="M1842 2383 c-74 -36 -120 -123 -108 -205 9 -59 36 -101 87 -135 60
-39 147 -40 206 -1 129 85 119 269 -18 338 -47 24 -122 26 -167 3z"/>
<path d="M2935 1766 c-149 -66 -159 -271 -17 -349 60 -33 106 -34 172 -6 77
33 126 120 114 201 -20 124 -158 203 -269 154z"/>
</g>
</svg>
