<?xml version="1.0" standalone="no"?>
<!DOCTYPE svg PUBLIC "-//W3C//DTD SVG 20010904//EN"
 "http://www.w3.org/TR/2001/REC-SVG-20010904/DTD/svg10.dtd">
<svg version="1.0" xmlns="http://www.w3.org/2000/svg"
 width="372.000000pt" height="277.000000pt" viewBox="0 0 372.000000 277.000000"
 preserveAspectRatio="xMidYMid meet">

<g transform="translate(0.000000,277.000000) scale(0.100000,-0.100000)"
fill="#000000" stroke="none">
<path d="M1842 2709 c-507 -49 -947 -405 -1106 -894 -48 -148 -61 -228 -61
-400 0 -227 40 -395 138 -591 l44 -88 -114 -340 c-62 -187 -112 -342 -111
-346 2 -4 163 44 357 107 l355 114 85 -40 c301 -140 654 -159 971 -51 385 132
696 452 820 845 42 132 54 225 54 390 -1 175 -20 298 -70 437 -145 402 -502
725 -908 824 -100 24 -265 45 -336 42 -19 0 -72 -4 -118 -9z m285 -220 c350
-49 659 -273 818 -594 77 -156 105 -266 112 -440 6 -161 -8 -259 -58 -403 -53
-151 -130 -274 -248 -395 -155 -160 -348 -265 -575 -311 -87 -18 -279 -21
-376 -5 -95 15 -265 74 -343 120 -38 21 -76 39 -85 39 -10 0 -100 -27 -202
-60 -101 -33 -190 -60 -197 -60 -8 0 8 58 46 168 82 235 80 220 32 297 -80
126 -132 274 -151 429 -66 525 248 1015 752 1175 155 49 314 63 475 40z"/>
<path d="M1469 2026 c-126 -86 -177 -284 -116 -452 69 -191 304 -491 480 -612
89 -61 147 -91 296 -150 107 -43 122 -47 202 -46 77 0 94 4 151 32 86 42 135
92 154 159 8 29 14 69 12 90 -3 38 -3 38 -148 115 -80 43 -157 78 -171 78 -19
0 -35 -11 -55 -37 -60 -79 -106 -123 -131 -123 -51 0 -196 87 -294 178 -67 62
-189 234 -189 266 0 11 20 41 45 67 25 26 52 63 61 82 16 33 15 36 -36 172
-79 212 -73 205 -168 205 -44 0 -66 -6 -93 -24z"/>
</g>
</svg>
